<?xml version="1.0" standalone="no"?>
<!DOCTYPE svg PUBLIC "-//W3C//DTD SVG 20010904//EN"
 "http://www.w3.org/TR/2001/REC-SVG-20010904/DTD/svg10.dtd">
<svg version="1.0" xmlns="http://www.w3.org/2000/svg"
 width="512.000000pt" height="512.000000pt" viewBox="0 0 512.000000 512.000000"
 preserveAspectRatio="xMidYMid meet">
<metadata>
Created by potrace 1.11, written by Peter Selinger 2001-2013
</metadata>
<g transform="translate(0.000000,512.000000) scale(0.100000,-0.100000)"
fill="#000000" stroke="none">
<path d="M2497 5074 c-1 -1 -49 -4 -107 -8 -58 -4 -121 -9 -140 -12 -493 -74
-865 -238 -1250 -549 -64 -52 -293 -289 -352 -365 -164 -212 -309 -473 -393
-710 -26 -73 -74 -227 -81 -262 -28 -138 -54 -299 -60 -368 -13 -159 -8 -457
10 -560 3 -14 7 -47 11 -73 7 -60 29 -165 49 -245 3 -12 8 -30 10 -40 2 -9 18
-61 36 -115 155 -483 468 -925 869 -1227 18 -14 45 -34 59 -46 47 -36 184
-119 282 -172 226 -120 523 -218 755 -248 22 -2 45 -7 52 -9 46 -16 392 -24
513 -11 121 12 168 18 240 32 41 8 86 17 100 20 55 10 210 58 299 91 331 124
619 309 871 562 243 243 422 512 550 821 60 147 126 367 145 480 3 19 8 49 12
65 3 17 7 41 8 55 6 58 17 147 21 170 5 29 5 372 0 410 -2 14 -7 56 -10 93 -4
37 -10 78 -12 90 -3 12 -7 40 -10 62 -8 64 -50 232 -84 337 -73 230 -200 487
-334 678 -179 255 -417 486 -686 663 -267 176 -689 336 -960 363 -25 3 -51 7
-58 9 -22 8 -347 25 -355 19z m298 -387 c11 -2 43 -8 70 -11 339 -48 728 -226
1002 -458 390 -330 652 -785 738 -1283 36 -210 40 -485 9 -705 -15 -109 -74
-340 -106 -418 -6 -15 -12 -29 -13 -32 -1 -3 -5 -14 -10 -25 -244 -614 -746
-1076 -1367 -1256 -53 -15 -123 -33 -155 -38 -32 -6 -69 -13 -82 -16 -141 -27
-499 -27 -646 0 -209 40 -396 100 -569 184 -555 272 -969 789 -1121 1400 -65
262 -85 578 -50 801 2 14 7 48 10 75 10 81 65 292 101 394 208 574 657 1042
1209 1258 99 39 184 66 260 83 28 7 55 13 60 14 12 3 70 14 110 21 17 3 59 8
95 11 36 3 67 8 69 9 5 5 361 -3 386 -8z"/>
<path d="M2377 3795 c-2 -5 -3 -568 -3 -1250 l1 -1240 188 0 187 0 -2 1250 -3
1250 -182 0 c-115 0 -184 -3 -186 -10z"/>
</g>
</svg>
